# xmcd
#
# Track frame offsets:
#	150
#	10694
#	26826
#	37982
#	61641
#	80760
#	92325
#	118786
#	137217
#	154188
#	177388
#	193636
#
# Disc length: 3104 seconds
#
# Revision: 1
# Processed by: cddbd v1.5.2PL0 Copyright (c) Steve Scherf et al.
# Submitted via: audiograbber 1.83.01
#
DISCID=940c1e0c
DTITLE=Beth Scalet - Beth Loves Bob
DYEAR=2001
DGENRE=Blues
TTITLE0=The Times They Are a-Changin'
TTITLE1=Knockin' On Heaven's Door
TTITLE2=Girl Of The North Country
TTITLE3=Blind Willie McTell
TTITLE4=Corrina, Corrina/It Takes A Lot To Laugh (medley)
TTITLE5=Down In The Flood
TTITLE6=Like A Rolling Stone
TTITLE7=Just Like Tom Thumb's Blues
TTITLE8=I'll Be Your Baby Tonight
TTITLE9=Boots Of Spanish Leather
TTITLE10=All Along The Watchtower
TTITLE11=Don't Think Twice, It's Alright/Just Like A Woman (medley)
EXTD=
EXTT0=
EXTT1=
EXTT2=
EXTT3=
EXTT4=
EXTT5=
EXTT6=
EXTT7=
EXTT8=
EXTT9=
EXTT10=
EXTT11=
PLAYORDER=
